<?xml version="1.0"?>
<svg version="1.1" xmlns="http://www.w3.org/2000/svg" width="294px" height="86px" style=""><path fill="#66696b" d="M4.1328125,70.58203125l0-32.837890625l6.962890625,0l0,27.087890625l13.3193359375,0l0,5.75l-20.2822265625,0z M38.200888671875,57.9814453125q0,3.728515625,1.22412109375,5.6376953125t3.98681640625,1.9091796875q2.740234375,0,3.94189453125-1.89794921875t1.20166015625-5.64892578125q0-3.728515625-1.212890625-5.5927734375t-3.9755859375-1.8642578125q-2.740234375,0-3.953125,1.85302734375t-1.212890625,5.60400390625z M55.563193359375,57.9814453125q0,6.1318359375-3.234375,9.5908203125t-9.0068359375,3.458984375q-3.6162109375,0-6.37890625-1.58349609375t-4.2451171875-4.54833984375t-1.482421875-6.91796875q0-6.154296875,3.2119140625-9.568359375t9.029296875-3.4140625q3.6162109375,0,6.37890625,1.572265625t4.2451171875,4.5146484375t1.482421875,6.8955078125z M86.23966796875,45.470703125l0,3.4814453125l-3.9306640625,1.0107421875q1.078125,1.6845703125,1.078125,3.7734375q0,4.04296875-2.81884765625,6.30029296875t-7.82763671875,2.25732421875l-1.2353515625-0.0673828125l-1.0107421875-0.1123046875q-1.0556640625,0.80859375-1.0556640625,1.796875q0,1.482421875,3.7734375,1.482421875l4.267578125,0q4.1328125,0,6.30029296875,1.7744140625t2.16748046875,5.2109375q0,4.40234375-3.67236328125,6.828125t-10.54541015625,2.42578125q-5.255859375,0-8.02978515625-1.83056640625t-2.77392578125-5.13232421875q0-2.2685546875,1.4150390625-3.7958984375t4.1552734375-2.1787109375q-1.0556640625-0.44921875-1.841796875-1.47119140625t-0.7861328125-2.16748046875q0-1.4375,0.8310546875-2.39208984375t2.4033203125-1.87548828125q-1.9765625-0.853515625-3.13330078125-2.740234375t-1.15673828125-4.447265625q0-4.1103515625,2.6728515625-6.3564453125t7.63671875-2.24609375q1.0556640625,0,2.50439453125,0.19091796875t1.85302734375,0.28076171875l8.759765625,0z M66.85587890625,74.130859375q0,1.4150390625,1.35888671875,2.2236328125t3.80712890625,0.80859375q3.68359375,0,5.7724609375-1.0107421875t2.0888671875-2.7626953125q0-1.4150390625-1.2353515625-1.9541015625t-3.818359375-0.5390625l-3.548828125,0q-1.88671875,0-3.15576171875,0.88720703125t-1.26904296875,2.34716796875z M69.34904296875,53.69140625q0,2.0439453125,0.93212890625,3.234375t2.84130859375,1.1904296875q1.931640625,0,2.830078125-1.1904296875t0.8984375-3.234375q0-4.537109375-3.728515625-4.537109375q-3.7734375,0-3.7734375,4.537109375z M109.48157226563,70.58203125l-1.3251953125-3.4140625l-0.1796875,0q-1.7294921875,2.1787109375-3.56005859375,3.02099609375t-4.77294921875,0.84228515625q-3.6162109375,0-5.69384765625-2.06640625t-2.07763671875-5.884765625q0-3.998046875,2.79638671875-5.89599609375t8.43408203125-2.10009765625l4.357421875-0.134765625l0-1.1005859375q0-3.818359375-3.908203125-3.818359375q-3.009765625,0-7.0751953125,1.8193359375l-2.2685546875-4.626953125q4.3349609375-2.2685546875,9.61328125-2.2685546875q5.0537109375,0,7.7490234375,2.201171875t2.6953125,6.693359375l0,16.7333984375l-4.7841796875,0z M107.46008789063,58.947265625l-2.650390625,0.08984375q-2.9873046875,0.08984375-4.447265625,1.078125t-1.4599609375,3.009765625q0,2.8974609375,3.32421875,2.8974609375q2.380859375,0,3.80712890625-1.3701171875t1.42626953125-3.638671875l0-2.06640625z M147.66,70.58203125l-6.8505859375,0l0-14.6669921875q0-2.7177734375-0.9658203125-4.07666015625t-3.0771484375-1.35888671875q-2.875,0-4.1552734375,1.92041015625t-1.2802734375,6.36767578125l0,11.814453125l-6.8505859375,0l0-25.111328125l5.2333984375,0l0.9208984375,3.2119140625l0.3818359375,0q1.1455078125-1.8193359375,3.15576171875-2.75146484375t4.57080078125-0.93212890625q4.3798828125,0,6.6484375,2.36962890625t2.2685546875,6.83935546875l0,16.3740234375z M199.93873046875,70.58203125l-7.90625,0l-8.6025390625-13.8359375l-2.9423828125,2.111328125l0,11.724609375l-6.962890625,0l0-32.837890625l6.962890625,0l0,15.0263671875l2.740234375-3.86328125l8.89453125-11.1630859375l7.7265625,0l-11.455078125,14.5322265625z M217.09372070312,49.873046875q-2.1787109375,0-3.4140625,1.38134765625t-1.4150390625,3.91943359375l9.61328125,0q-0.044921875-2.5380859375-1.3251953125-3.91943359375t-3.458984375-1.38134765625z M218.05954101562,71.03125q-6.064453125,0-9.478515625-3.3466796875t-3.4140625-9.478515625q0-6.3115234375,3.15576171875-9.75927734375t8.72607421875-3.44775390625q5.3232421875,0,8.2880859375,3.0322265625t2.96484375,8.3779296875l0,3.32421875l-16.1943359375,0q0.1123046875,2.919921875,1.7294921875,4.5595703125t4.537109375,1.6396484375q2.2685546875,0,4.2900390625-0.4716796875t4.22265625-1.5048828125l0,5.30078125q-1.796875,0.8984375-3.8408203125,1.33642578125t-4.986328125,0.43798828125z M243.884453125,70.58203125l-6.8505859375,0l0-34.94921875l6.8505859375,0l0,34.94921875z M261.08436523437,70.58203125l-6.8505859375,0l0-34.94921875l6.8505859375,0l0,34.94921875z M288.95322265625,63.125q0,3.86328125-2.68408203125,5.884765625t-8.02978515625,2.021484375q-2.740234375,0-4.671875-0.37060546875t-3.6162109375-1.08935546875l0-5.66015625q1.9091796875,0.8984375,4.30126953125,1.5048828125t4.21142578125,0.6064453125q3.728515625,0,3.728515625-2.15625q0-0.80859375-0.494140625-1.31396484375t-1.70703125-1.1455078125t-3.234375-1.49365234375q-2.8974609375-1.212890625-4.25634765625-2.24609375t-1.9765625-2.36962890625t-0.61767578125-3.29052734375q0-3.3466796875,2.59423828125-5.17724609375t7.35595703125-1.83056640625q4.537109375,0,8.8271484375,1.9765625l-2.06640625,4.94140625q-1.88671875-0.80859375-3.5263671875-1.3251953125t-3.3466796875-0.5166015625q-3.0322265625,0-3.0322265625,1.6396484375q0,0.9208984375,0.97705078125,1.5947265625t4.27880859375,1.9990234375q2.9423828125,1.1904296875,4.3125,2.2236328125t2.021484375,2.380859375t0.6513671875,3.2119140625z"/><path fill="#" d=""/></svg>
